<?xml version="1.0" standalone="no"?>
<!DOCTYPE svg PUBLIC "-//W3C//DTD SVG 20010904//EN"
 "http://www.w3.org/TR/2001/REC-SVG-20010904/DTD/svg10.dtd">
<svg version="1.0" xmlns="http://www.w3.org/2000/svg"
 width="300.000000pt" height="79.000000pt" viewBox="0 0 300.000000 79.000000"
 preserveAspectRatio="xMidYMid meet">
<metadata>
Created by potrace 1.10, written by Peter Selinger 2001-2011
</metadata>
<g transform="translate(0.000000,79.000000) scale(0.100000,-0.100000)"
fill="#000000" stroke="none">
<path d="M1495 563 c-545 -7 -1037 -17 -1095 -21 -58 -4 431 -9 1087 -12
l1192 -5 -194 -185 c-107 -101 -192 -186 -190 -188 2 -3 102 74 222 170 120
95 238 189 263 208 25 18 49 37 55 42 11 9 -37 9 -1340 -9z"/>
<path d="M302 470 c-25 -11 -45 -52 -36 -75 4 -9 15 -20 25 -26 32 -17 22 -32
-16 -26 -32 5 -35 3 -35 -18 0 -42 67 -49 105 -10 32 31 31 50 0 77 -14 12
-25 25 -25 30 0 4 23 8 50 8 28 0 50 -1 50 -2 0 -2 -9 -32 -20 -68 -11 -36
-20 -66 -20 -68 0 -2 14 -2 32 0 31 3 33 6 48 68 14 58 19 65 43 68 15 2 27 7
27 12 0 5 3 15 6 24 5 14 -7 16 -102 15 -60 0 -119 -4 -132 -9z"/>
<path d="M520 388 l-60 -93 27 -3 c16 -2 32 3 39 12 14 20 60 21 68 1 4 -11
21 -15 60 -15 l54 0 9 37 c12 50 29 52 37 3 5 -34 10 -40 31 -40 21 0 25 5 25
28 0 15 -4 33 -9 41 -6 10 -3 23 11 41 38 52 6 85 -77 78 l-39 -3 -22 -85
c-23 -94 -32 -88 -36 25 -3 57 -4 60 -30 63 -25 3 -34 -6 -88 -90z m248 35
c-2 -10 -11 -19 -20 -21 -12 -2 -15 2 -11 17 7 25 36 28 31 4z m-176 -38 c-2
-14 -11 -25 -18 -25 -17 0 -17 5 -2 30 17 27 26 25 20 -5z"/>
<path d="M841 391 c-11 -49 -21 -92 -21 -95 0 -3 14 -6 30 -6 24 0 30 4 30 23
0 12 4 28 9 36 6 10 12 4 21 -23 10 -32 15 -36 46 -36 19 0 34 2 34 4 0 2 -9
23 -20 47 l-19 44 47 48 46 47 -31 0 c-25 0 -40 -10 -74 -47 -44 -50 -43 -51
-23 25 5 19 2 22 -24 22 -29 0 -30 -2 -51 -89z"/>
<path d="M1105 468 c-7 -22 -45 -168 -45 -173 0 -3 13 -5 28 -5 28 0 30 3 50
88 12 48 22 91 22 95 0 12 -50 7 -55 -5z"/>
<path d="M1176 468 c-2 -7 -11 -42 -19 -78 -8 -36 -18 -73 -22 -82 -6 -15 -2
-18 23 -18 32 0 42 14 42 56 0 36 15 29 33 -16 13 -34 20 -40 44 -40 28 0 30
3 46 73 9 39 20 82 23 95 6 19 3 22 -24 22 -27 0 -31 -4 -37 -40 -4 -22 -10
-40 -13 -40 -4 0 -15 18 -24 40 -13 32 -22 40 -43 40 -14 0 -27 -6 -29 -12z"/>
<path d="M1351 395 c-11 -46 -21 -89 -21 -95 0 -13 69 -13 109 1 33 12 54 42
66 96 10 48 -28 83 -88 83 l-45 0 -21 -85z m97 7 c4 -25 -22 -62 -43 -62 -8 0
-9 12 -1 45 12 49 38 59 44 17z"/>
<path d="M1537 473 c-11 -20 -29 -134 -24 -148 10 -25 55 -37 94 -24 35 11 65
56 76 114 3 17 9 38 12 48 6 14 2 17 -23 17 -21 0 -32 -6 -35 -17 -3 -10 -10
-39 -17 -65 -13 -48 -36 -70 -47 -42 -5 13 6 63 24 110 4 10 -3 14 -25 14 -17
0 -33 -3 -35 -7z"/>
<path d="M1731 467 c-14 -6 -29 -25 -34 -41 -9 -26 -7 -32 17 -51 36 -28 33
-39 -9 -32 -32 5 -35 4 -35 -18 0 -38 66 -46 108 -13 22 18 14 66 -13 84 -34
22 -23 34 35 34 l48 0 -19 -62 c-24 -80 -24 -78 11 -78 31 0 37 12 56 108 5
25 12 32 30 32 13 0 24 4 24 9 0 5 3 16 6 25 5 14 -7 16 -97 16 -63 0 -114 -5
-128 -13z"/>
<path d="M1966 463 c-9 -32 -46 -168 -46 -171 0 -2 15 -2 33 0 28 3 33 7 37
37 7 49 26 49 34 1 l6 -40 54 0 53 0 21 85 c27 107 27 107 -5 103 -24 -3 -28
-9 -46 -88 l-20 -84 -11 34 c-10 30 -9 38 6 59 36 48 11 81 -62 81 -38 0 -50
-4 -54 -17z m72 -40 c-5 -25 -28 -28 -28 -4 0 12 6 21 16 21 9 0 14 -7 12 -17z"/>
<path d="M2196 468 c-2 -7 -11 -43 -20 -79 -8 -36 -18 -73 -22 -82 -5 -15 5
-17 89 -17 108 0 139 8 162 43 19 29 11 55 -22 68 -30 11 -19 33 12 25 18 -5
25 -1 30 15 9 27 1 33 -40 33 -67 0 -100 -67 -50 -100 37 -24 22 -34 -51 -34
-48 0 -65 3 -62 13 3 6 18 14 34 17 17 3 30 12 32 23 3 15 -1 17 -22 11 -20
-5 -26 -2 -26 9 0 10 11 17 33 19 24 2 33 8 35 26 3 21 0 22 -53 22 -36 0 -57
-4 -59 -12z"/>
</g>
</svg>
